HIERARCHY
ROOT Hips
{
	OFFSET 0.000000 103.266502 0.000000
	CHANNELS 6 Xposition Yposition Zposition Xrotation Yrotation Zrotation 
	JOINT Spine
	{
		OFFSET -0.002400 12.777504 0.315300
		CHANNELS 3 Xrotation Yrotation Zrotation
		JOINT Spine1
		{
			OFFSET -0.002067 5.816869 0.032633
			CHANNELS 3 Xrotation Yrotation Zrotation
			JOINT Spine1_split
			{
				OFFSET -0.002067 5.816869 0.032633
				CHANNELS 3 Xrotation Yrotation Zrotation
				JOINT Spine2
				{
					OFFSET -0.002067 5.816869 0.032633
					CHANNELS 3 Xrotation Yrotation Zrotation
					JOINT Neck
					{
						OFFSET -0.003700 21.199493 -0.826900
						CHANNELS 3 Xrotation Yrotation Zrotation
						JOINT Head
						{
							OFFSET 0.000000 20.442200 4.834800
							CHANNELS 3 Xrotation Yrotation Zrotation
							JOINT HeadTop_End
							{
								OFFSET 0.000000 34.668396 4.968400
								CHANNELS 3 Xrotation Yrotation Zrotation
								End Site
								{
									OFFSET 0.000000 0.000000 0.000000
								}
							}
						}
					}
					JOINT LeftShoulder
					{
						OFFSET 3.288150 8.794197 -1.372250
						CHANNELS 3 Xrotation Yrotation Zrotation
						JOINT LeftShoulder_split
						{
							OFFSET 3.288150 8.794197 -1.372250
							CHANNELS 3 Xrotation Yrotation Zrotation
							JOINT LeftArm
							{
								OFFSET 11.953299 -2.279007 -0.146200
								CHANNELS 3 Xrotation Yrotation Zrotation
								JOINT LeftForeArm
								{
									OFFSET 18.448900 0.000000 0.000000
									CHANNELS 3 Xrotation Yrotation Zrotation
									JOINT LeftHand
									{
										OFFSET 29.527798 0.000000 0.000000
										CHANNELS 3 Xrotation Yrotation Zrotation
										JOINT LeftHandThumb1
										{
											OFFSET 10.739754 -2.369614 9.225399
											CHANNELS 3 Xrotation Yrotation Zrotation
											JOINT LeftHandThumb2
											{
												OFFSET 4.926170 -2.844131 2.844125
												CHANNELS 3 Xrotation Yrotation Zrotation
												JOINT LeftHandThumb3
												{
													OFFSET 4.614891 -2.664413 2.664409
													CHANNELS 3 Xrotation Yrotation Zrotation
													JOINT LeftHandThumb4
													{
														OFFSET 4.432465 -2.559082 2.559083
														CHANNELS 3 Xrotation Yrotation Zrotation
														End Site
														{
															OFFSET 0.000000 0.000000 0.000000
														}
													}
												}
											}
										}
										JOINT LeftHandIndex1
										{
											OFFSET 26.467674 0.187653 6.405298
											CHANNELS 3 Xrotation Yrotation Zrotation
											JOINT LeftHandIndex2
											{
												OFFSET 8.792900 0.000000 0.000000
												CHANNELS 3 Xrotation Yrotation Zrotation
												JOINT LeftHandIndex3
												{
													OFFSET 10.075203 0.000000 0.000000
													CHANNELS 3 Xrotation Yrotation Zrotation
													End Site
													{
														OFFSET 0.000000 0.000000 0.000000
													}
												}
											}
										}
										JOINT LeftHandMiddle1
										{
											OFFSET 25.764404 0.000000 0.000000
											CHANNELS 3 Xrotation Yrotation Zrotation
											JOINT LeftHandMiddle2
											{
												OFFSET 9.393974 0.000000 0.000000
												CHANNELS 3 Xrotation Yrotation Zrotation
												JOINT LeftHandMiddle3
												{
													OFFSET 10.771950 0.000000 0.000000
													CHANNELS 3 Xrotation Yrotation Zrotation
													End Site
													{
														OFFSET 0.000000 0.000000 0.000000
													}
												}
											}
										}
										JOINT LeftHandRing1
										{
											OFFSET 24.660927 0.144547 -6.225808
											CHANNELS 3 Xrotation Yrotation Zrotation
											JOINT LeftHandRing2
											{
												OFFSET 9.393799 0.000000 0.000000
												CHANNELS 3 Xrotation Yrotation Zrotation
												JOINT LeftHandRing3
												{
													OFFSET 9.928497 0.000000 0.000000
													CHANNELS 3 Xrotation Yrotation Zrotation
													End Site
													{
														OFFSET 0.000000 0.000000 0.000000
													}
												}
											}
										}
										JOINT LeftHandPinky1
										{
											OFFSET 23.655350 0.125290 -12.815412
											CHANNELS 3 Xrotation Yrotation Zrotation
											JOINT LeftHandPinky2
											{
												OFFSET 8.425102 0.000000 0.000000
												CHANNELS 3 Xrotation Yrotation Zrotation
												JOINT LeftHandPinky3
												{
													OFFSET 8.147003 0.000000 0.000000
													CHANNELS 3 Xrotation Yrotation Zrotation
													End Site
													{
														OFFSET 0.000000 0.000000 0.000000
													}
												}
											}
										}
									}
								}
							}
						}
					}
					JOINT RightShoulder
					{
						OFFSET -3.249400 8.794197 -1.372250
						CHANNELS 3 Xrotation Yrotation Zrotation
						JOINT RightShoulder_split
						{
							OFFSET -3.249400 8.794197 -1.372250
							CHANNELS 3 Xrotation Yrotation Zrotation
							JOINT RightArm
							{
								OFFSET -11.953299 -2.279007 -0.146200
								CHANNELS 3 Xrotation Yrotation Zrotation
								JOINT RightForeArm
								{
									OFFSET -18.448900 0.000000 0.000000
									CHANNELS 3 Xrotation Yrotation Zrotation
									JOINT RightHand
									{
										OFFSET -29.527802 0.000000 0.000000
										CHANNELS 3 Xrotation Yrotation Zrotation
										JOINT RightHandThumb1
										{
											OFFSET -10.739754 -2.369614 9.225399
											CHANNELS 3 Xrotation Yrotation Zrotation
											JOINT RightHandThumb2
											{
												OFFSET -4.926170 -2.844131 2.844125
												CHANNELS 3 Xrotation Yrotation Zrotation
												JOINT RightHandThumb3
												{
													OFFSET -4.614891 -2.664413 2.664409
													CHANNELS 3 Xrotation Yrotation Zrotation
													JOINT RightHandThumb4
													{
														OFFSET -4.432465 -2.559082 2.559083
														CHANNELS 3 Xrotation Yrotation Zrotation
														End Site
														{
															OFFSET 0.000000 0.000000 0.000000
														}
													}
												}
											}
										}
										JOINT RightHandIndex1
										{
											OFFSET -26.467674 0.187653 6.405298
											CHANNELS 3 Xrotation Yrotation Zrotation
											JOINT RightHandIndex2
											{
												OFFSET -8.792900 0.000000 0.000000
												CHANNELS 3 Xrotation Yrotation Zrotation
												JOINT RightHandIndex3
												{
													OFFSET -10.075203 0.000000 0.000000
													CHANNELS 3 Xrotation Yrotation Zrotation
													End Site
													{
														OFFSET 0.000000 0.000000 0.000000
													}
												}
											}
										}
										JOINT RightHandMiddle1
										{
											OFFSET -25.764404 0.000000 0.000000
											CHANNELS 3 Xrotation Yrotation Zrotation
											JOINT RightHandMiddle2
											{
												OFFSET -9.393974 0.000000 0.000000
												CHANNELS 3 Xrotation Yrotation Zrotation
												JOINT RightHandMiddle3
												{
													OFFSET -10.771950 0.000000 0.000000
													CHANNELS 3 Xrotation Yrotation Zrotation
													End Site
													{
														OFFSET 0.000000 0.000000 0.000000
													}
												}
											}
										}
										JOINT RightHandRing1
										{
											OFFSET -24.660927 0.144547 -6.225808
											CHANNELS 3 Xrotation Yrotation Zrotation
											JOINT RightHandRing2
											{
												OFFSET -9.393799 0.000000 0.000000
												CHANNELS 3 Xrotation Yrotation Zrotation
												JOINT RightHandRing3
												{
													OFFSET -9.928497 0.000000 0.000000
													CHANNELS 3 Xrotation Yrotation Zrotation
													End Site
													{
														OFFSET 0.000000 0.000000 0.000000
													}
												}
											}
										}
										JOINT RightHandPinky1
										{
											OFFSET -23.655350 0.125290 -12.815412
											CHANNELS 3 Xrotation Yrotation Zrotation
											JOINT RightHandPinky2
											{
												OFFSET -8.425102 0.000000 0.000000
												CHANNELS 3 Xrotation Yrotation Zrotation
												JOINT RightHandPinky3
												{
													OFFSET -8.147003 0.000000 0.000000
													CHANNELS 3 Xrotation Yrotation Zrotation
													End Site
													{
														OFFSET 0.000000 0.000000 0.000000
													}
												}
											}
										}
									}
								}
							}
						}
					}
				}
			}
		}
	}
	JOINT LeftUpLeg
	{
		OFFSET 11.394100 -6.187798 -0.413800
		CHANNELS 3 Xrotation Yrotation Zrotation
		JOINT LeftLeg
		{
			OFFSET 0.430247 -32.302673 3.732800
			CHANNELS 3 Xrotation Yrotation Zrotation
			JOINT LeftFoot
			{
				OFFSET -0.430247 -48.264931 -6.423300
				CHANNELS 3 Xrotation Yrotation Zrotation
				JOINT LeftToeBase
				{
					OFFSET 4.230900 -16.068199 23.438400
					CHANNELS 3 Xrotation Yrotation Zrotation
					JOINT LeftToe_End
					{
						OFFSET 4.510700 0.695400 19.974600
						CHANNELS 3 Xrotation Yrotation Zrotation
						End Site
						{
							OFFSET 0.000000 0.000000 0.000000
						}
					}
				}
			}
		}
	}
	JOINT RightUpLeg
	{
		OFFSET -11.333700 -6.187798 -0.413800
		CHANNELS 3 Xrotation Yrotation Zrotation
		JOINT RightLeg
		{
			OFFSET -0.430392 -32.302628 3.733000
			CHANNELS 3 Xrotation Yrotation Zrotation
			JOINT RightFoot
			{
				OFFSET 0.430392 -48.264973 -6.423500
				CHANNELS 3 Xrotation Yrotation Zrotation
				JOINT RightToeBase
				{
					OFFSET -4.230900 -16.068199 23.438400
					CHANNELS 3 Xrotation Yrotation Zrotation
					JOINT RightToe_End
					{
						OFFSET -4.510700 0.695400 19.974600
						CHANNELS 3 Xrotation Yrotation Zrotation
						End Site
						{
							OFFSET 0.000000 0.000000 0.000000
						}
					}
				}
			}
		}
	}
}
MOTION
Frames: 4
Frame Time: 0.016667
-23.026520 139.284302 33.123890 2.233195 -19.983071 1.523422 -1.334938 -0.078134 -0.176569 -2.672069 -0.088748 -1.714352 0.000000 0.000000 0.000000 -2.672069 -0.088751 -1.714354 -29.250149 2.152607 0.925379 -6.741641 1.385350 2.203540 -0.000004 -0.000001 -0.000001 3.677176 6.194737 24.143612 0.000000 0.000000 0.000000 -59.663335 -29.699288 18.551123 331.726469 -50.304794 364.575718 9.712923 12.043599 4.406375 -18.855676 8.933429 3.057165 -10.184094 7.391058 11.736445 0.000010 0.000010 0.000007 -0.000001 0.000000 0.000002 -0.592729 -8.809705 -64.466884 -7.414316 -3.196018 -73.590261 0.000001 -0.000000 -0.000001 -4.669421 -3.546346 -64.557507 -4.343525 -4.390800 -63.402249 -0.000001 0.000002 0.000000 -8.499389 6.196401 -65.422291 -0.143900 -6.140951 -71.299177 0.000001 -0.000000 0.000002 -11.696397 6.569861 -64.444604 0.747958 -7.748553 -64.679760 -0.000001 0.000001 0.000001 -5.618872 -8.488131 -29.945264 0.000000 0.000000 0.000000 -79.202464 30.402104 25.861294 -28.766967 45.497341 -9.943787 18.101909 -7.770126 -17.702064 -9.927558 -3.135334 -3.423725 9.147230 -6.167981 1.841524 0.000001 -0.000004 -0.000002 0.000001 -0.000001 -0.000001 -5.800756 7.899898 47.461113 -1.705269 0.304397 43.209843 -0.000000 -0.000000 0.000002 -3.405854 2.123215 34.452420 -0.819696 0.602213 26.448268 -0.000000 -0.000001 -0.000003 -6.121030 -2.660810 25.197529 0.241157 1.204289 20.283553 -0.000000 0.000000 -0.000002 -8.974041 -11.015638 18.858279 0.726518 6.448859 30.513860 -0.000000 -0.000000 -0.000000 -26.170387 9.634824 4.203427 37.006853 6.607347 4.309297 26.815176 -0.603198 -3.402777 -0.000020 0.000001 -0.000018 0.000002 0.000000 0.000000 -4.271144 -7.054897 -3.628296 19.365649 -22.271290 4.247460 33.767089 -3.083749 -2.150096 -0.613565 -0.783489 0.838807 -0.000002 -0.000001 -0.000000 
-23.094343 138.372955 33.720261 1.981283 -19.324583 1.255346 -1.422390 -0.140781 -0.123899 -2.849546 -0.229108 -1.624431 0.000000 0.000000 0.000000 -2.849543 -0.229103 -1.624431 -27.415811 2.071720 -0.405987 -8.884824 0.776538 3.209521 0.000002 -0.000000 0.000000 4.781803 6.071384 25.311127 0.000000 0.000000 0.000000 -58.312761 -25.193201 16.875541 334.030128 -55.829574 367.584471 10.718694 15.468678 -3.727595 -21.309475 8.848103 3.603934 -11.046014 7.810724 12.734305 0.000010 0.000009 0.000005 0.000002 -0.000001 0.000000 -0.668642 -9.385959 -69.496984 -8.126660 -3.034138 -78.334422 -0.000001 0.000000 0.000001 -5.910808 -3.911915 -68.776119 -4.727740 -4.456429 -66.846460 -0.000002 -0.000001 -0.000001 -9.746228 6.167376 -68.259667 -0.270667 -6.498665 -74.555777 -0.000001 -0.000001 -0.000000 -13.460160 6.392941 -66.874519 0.796671 -7.975014 -66.777107 0.000000 0.000001 0.000001 -3.148152 -6.622062 -28.188288 0.000000 0.000000 0.000000 -74.921206 31.517252 20.078731 -28.646401 45.441078 -7.798857 14.499149 -7.568644 -15.891489 -11.314168 -0.640369 -7.794869 7.524580 -9.236274 1.695803 0.000001 -0.000004 -0.000004 0.000001 -0.000000 -0.000000 -6.559496 7.393453 54.528849 -2.449458 0.693826 50.819766 -0.000001 -0.000000 0.000000 -5.103906 3.187960 44.972844 -1.503196 1.527328 37.885683 -0.000001 -0.000000 0.000002 -7.748214 -2.737555 35.791725 0.247991 1.908889 31.704970 -0.000000 0.000000 0.000002 -9.849992 -10.151342 30.707223 1.148581 7.284871 39.051835 -0.000000 -0.000000 0.000002 -27.112357 9.221360 3.906670 37.737738 8.470486 4.056635 30.043250 -0.407171 -1.966270 -0.000040 0.000001 -0.000018 -0.000001 0.000000 0.000000 -5.661230 -7.301570 -4.220284 20.210398 -21.523482 4.205050 36.253818 -3.015860 -2.700866 -0.254709 0.048031 -0.222042 0.000003 0.000001 0.000002 
-23.150158 137.271698 34.305435 1.646313 -18.535301 0.959906 -1.507294 -0.169905 -0.074338 -3.020490 -0.300869 -1.519637 0.000000 0.000000 0.000000 -3.020491 -0.300878 -1.519637 -26.025205 2.006422 -1.891968 -10.487883 0.012931 4.301347 -0.000001 -0.000002 -0.000000 5.846717 6.266299 26.599555 0.000000 0.000000 0.000000 -57.037185 -19.937309 14.143161 336.297423 -62.699525 371.221738 12.075446 18.775983 -12.001249 -22.924203 8.761534 3.939449 -11.613939 8.069312 13.395150 0.000009 0.000007 0.000003 0.000002 0.000002 0.000002 -0.755061 -9.793366 -72.801675 -8.582110 -2.886311 -81.445225 -0.000000 -0.000000 -0.000001 -6.750416 -4.067578 -71.547878 -4.980420 -4.484670 -69.106508 0.000001 0.000001 -0.000001 -10.571544 6.213374 -70.118544 -0.370428 -6.734646 -76.693974 -0.000000 0.000001 0.000001 -14.634864 6.353566 -68.460571 0.821191 -8.127460 -68.153929 -0.000000 -0.000000 -0.000003 -2.023505 -4.492270 -27.139994 0.000000 0.000000 0.000000 -68.184330 31.329443 12.866683 -29.783013 45.104066 -2.566851 9.883244 -7.225270 -16.008765 -12.809655 2.188555 -12.808839 5.561950 -12.734988 1.298105 0.000000 -0.000004 -0.000004 0.000000 -0.000001 0.000001 -7.288536 6.738052 62.692346 -3.350656 0.967323 59.638855 0.000000 -0.000000 -0.000001 -7.419772 3.777879 57.205525 -2.526055 2.313675 51.151007 -0.000001 -0.000000 0.000000 -9.662698 -3.338282 48.032687 0.154359 2.763920 44.927140 0.000000 0.000000 0.000001 -11.600127 -9.546208 44.232189 1.459214 8.447044 48.947301 0.000000 0.000000 -0.000001 -27.867413 8.687230 3.870625 38.477195 10.481780 3.385871 33.123979 -0.159370 -0.224742 -0.000011 -0.000004 -0.000017 -0.000002 0.000000 -0.000000 -6.992963 -7.241724 -4.556385 21.085144 -20.254629 3.963856 38.848101 -2.592042 -3.461872 -0.065636 0.012383 -0.057160 0.000002 -0.000001 0.000001 
-23.208567 136.061340 34.894634 1.243651 -17.598440 0.643685 -1.643731 -0.154340 0.029322 -3.292606 -0.278829 -1.303055 0.000000 0.000000 0.000000 -3.292604 -0.278815 -1.303054 -24.829288 1.898692 -2.852156 -11.555614 -0.586101 4.627739 -0.000000 0.000000 0.000000 6.717991 6.329314 27.810085 0.000000 0.000000 0.000000 -55.092586 -13.574159 10.508929 339.072037 -71.280155 375.947382 13.106026 22.007756 -18.493772 -23.505078 8.724723 4.055231 -11.818379 8.158942 13.633697 0.000012 0.000009 0.000003 -0.000001 -0.000002 -0.000000 -0.793925 -9.944886 -73.989882 -8.742880 -2.825306 -82.562295 -0.000001 0.000000 -0.000000 -7.055845 -4.106884 -72.544027 -5.071165 -4.491914 -69.918420 0.000001 -0.000000 -0.000002 -10.868879 6.242543 -70.785622 -0.409527 -6.819509 -77.462459 -0.000000 0.000000 0.000001 -15.058813 6.352190 -69.028521 0.828518 -8.182918 -68.648674 -0.000000 -0.000001 -0.000000 -0.962620 -3.617258 -26.818750 0.000000 0.000000 0.000000 -63.904261 30.681114 10.710911 -28.415911 46.120398 -0.431016 6.073474 -6.296538 -14.958005 -14.232513 4.972271 -17.779601 3.459906 -16.185136 0.633631 0.000001 -0.000004 -0.000003 0.000000 0.000000 0.000001 -7.858100 6.046803 70.836151 -4.257023 1.049422 68.456705 0.000000 -0.000000 -0.000004 -9.917071 3.592960 69.474765 -3.708012 2.725243 64.428806 -0.000000 -0.000000 -0.000004 -11.472223 -4.499105 60.238607 -0.069193 3.650700 58.140489 0.000000 0.000000 -0.000001 -13.977442 -9.646175 57.544439 1.523861 9.778976 58.870760 0.000000 0.000001 0.000002 -28.433729 8.553702 3.825395 39.112976 12.028597 2.984078 35.812249 0.349138 1.515477 -0.000006 0.000001 -0.000022 0.000001 -0.000000 0.000001 -8.284342 -7.157238 -4.201714 21.857290 -19.504430 2.522120 41.309264 -1.495539 -3.341529 -0.000055 0.000001 0.000072 0.000001 0.000000 0.000000 
